<svg width="93" height="15" viewBox="0 0 93 15" fill="none" xmlns="http://www.w3.org/2000/svg">
<path d="M3.94582 0.052767L5.071 0.376447C4.79356 0.95188 4.46474 1.51704 4.08454 2.07192C3.70435 2.61652 3.29846 3.12517 2.86689 3.59784C2.44559 4.07052 2.01915 4.48668 1.58758 4.84633C1.52592 4.7744 1.43344 4.69219 1.31014 4.59971C1.19711 4.49696 1.07894 4.39934 0.955629 4.30686C0.842598 4.21438 0.739842 4.14245 0.647362 4.09107C1.305 3.59784 1.92667 2.99672 2.51238 2.28771C3.09809 1.57869 3.5759 0.833711 3.94582 0.052767ZM3.40636 1.8253H14.0262V2.87341H3.02102L3.40636 1.8253ZM0.832322 5.46286H14.5965V6.52638H0.832322V5.46286ZM1.06352 9.14666H14.3961V10.2102H1.06352V9.14666ZM5.73377 2.17981H6.75106V9.6553H5.73377V2.17981ZM2.99019 2.17981H4.02289V9.70154H2.99019V2.17981ZM8.5236 2.17981H9.52546V9.70154H8.5236V2.17981ZM11.3442 2.17981H12.4232V9.70154H11.3442V2.17981ZM5.31761 11.2583L6.38114 11.1504C6.48389 11.6025 6.57123 12.0906 6.64316 12.6147C6.71509 13.1387 6.7562 13.5806 6.76647 13.9402L5.64129 14.0943C5.64129 13.8477 5.62588 13.56 5.59505 13.2312C5.5745 12.9127 5.53854 12.5787 5.48716 12.2293C5.44606 11.88 5.38954 11.5563 5.31761 11.2583ZM8.46194 11.2583L9.54088 11.0579C9.68474 11.3559 9.82346 11.6796 9.95704 12.029C10.0906 12.3681 10.2088 12.6969 10.3115 13.0154C10.4143 13.334 10.4914 13.6165 10.5427 13.8631L9.40216 14.1098C9.33023 13.7398 9.20692 13.2877 9.03224 12.7534C8.85755 12.2191 8.66745 11.7207 8.46194 11.2583ZM11.6063 11.1504L12.7006 10.7959C12.9575 11.0939 13.2195 11.4278 13.4867 11.7978C13.7539 12.1677 14.0005 12.5325 14.2265 12.8921C14.4629 13.2415 14.6478 13.56 14.7814 13.8477L13.6408 14.2639C13.5175 13.9865 13.3428 13.6679 13.1168 13.3083C12.901 12.9486 12.6595 12.5787 12.3924 12.1985C12.1252 11.8183 11.8632 11.4689 11.6063 11.1504ZM2.62027 10.8575L3.73004 11.135C3.52452 11.7104 3.25736 12.2807 2.92854 12.8459C2.59972 13.411 2.22466 13.8786 1.80336 14.2485L0.724429 13.8015C1.12518 13.4727 1.4951 13.0411 1.83419 12.5068C2.17329 11.9724 2.43531 11.4227 2.62027 10.8575ZM20.022 4.21438L21.1626 4.55347C20.8029 5.27276 20.3868 5.9715 19.9141 6.64969C19.4414 7.32788 18.9379 7.95983 18.4036 8.54554C17.8795 9.13124 17.3452 9.64502 16.8006 10.0869C16.7286 10.0149 16.631 9.9276 16.5077 9.82485C16.3947 9.72209 16.2765 9.61933 16.1532 9.51658C16.0299 9.41382 15.922 9.33162 15.8295 9.26996C16.3844 8.86922 16.9239 8.40168 17.4479 7.86735C17.972 7.33302 18.4549 6.75245 18.8968 6.12564C19.3386 5.49883 19.7137 4.86174 20.022 4.21438ZM23.2896 4.3531H24.4302V12.1369C24.4302 12.4657 24.4867 12.6815 24.5997 12.7842C24.723 12.8767 24.9851 12.9229 25.3858 12.9229C25.4783 12.9229 25.6479 12.9229 25.8945 12.9229C26.1514 12.9229 26.4288 12.9229 26.7268 12.9229C27.0351 12.9229 27.3228 12.9229 27.5899 12.9229C27.8571 12.9229 28.0523 12.9229 28.1756 12.9229C28.4223 12.9229 28.6072 12.8613 28.7305 12.738C28.8538 12.6147 28.9412 12.3835 28.9926 12.0444C29.0439 11.695 29.085 11.1915 29.1159 10.5339C29.2083 10.5955 29.3162 10.6572 29.4395 10.7188C29.5628 10.7805 29.6913 10.837 29.8249 10.8884C29.9585 10.9295 30.0766 10.9654 30.1794 10.9963C30.128 11.7669 30.0407 12.3732 29.9174 12.815C29.8043 13.2569 29.6142 13.5652 29.3471 13.7398C29.0902 13.9145 28.7203 14.0019 28.2373 14.0019C28.1654 14.0019 28.0266 14.0019 27.8211 14.0019C27.6259 14.0019 27.3998 14.0019 27.1429 14.0019C26.8861 14.0019 26.624 14.0019 26.3569 14.0019C26.1 14.0019 25.8739 14.0019 25.6787 14.0019C25.4834 14.0019 25.355 14.0019 25.2933 14.0019C24.7693 14.0019 24.3634 13.9454 24.0757 13.8323C23.788 13.7296 23.5825 13.5395 23.4592 13.262C23.3461 12.9949 23.2896 12.6198 23.2896 12.1369V4.3531ZM28.6535 5.67865L29.532 6.57262C29.0593 6.88089 28.5199 7.1943 27.9136 7.51284C27.3074 7.82111 26.6754 8.1191 26.0178 8.40682C25.3704 8.69453 24.7385 8.96683 24.1219 9.22372C24.0911 9.10042 24.0294 8.95656 23.937 8.79215C23.8548 8.61746 23.7726 8.47361 23.6904 8.36057C24.2966 8.11396 24.9029 7.84166 25.5091 7.54367C26.1257 7.2354 26.7062 6.92199 27.2508 6.60345C27.8057 6.28491 28.2733 5.97664 28.6535 5.67865ZM16.3382 1.4708H29.8865V2.58056H16.3382V1.4708ZM20.0528 0.052767H21.178V4.21438H20.0528V0.052767ZM25.093 0.052767H26.249V4.29144H25.093V0.052767ZM18.7427 7.12751L19.8678 6.00233L19.8833 6.01774V14.2331H18.7427V7.12751ZM31.7824 8.23727H45.2999V9.30079H31.7824V8.23727ZM37.9323 1.17794H39.15V14.2331H37.9323V1.17794ZM37.5161 8.68426L38.4872 9.11583C38.0042 9.76319 37.4185 10.3849 36.7301 10.9808C36.0416 11.5768 35.3018 12.1112 34.5105 12.5838C33.7296 13.0462 32.9538 13.4264 32.1831 13.7244C32.1215 13.6319 32.0444 13.5241 31.9519 13.4007C31.8594 13.2774 31.7618 13.1593 31.6591 13.0462C31.5666 12.9435 31.4741 12.851 31.3816 12.7688C31.9571 12.5838 32.5376 12.3475 33.1233 12.0598C33.709 11.7721 34.2742 11.4484 34.8188 11.0887C35.3737 10.7291 35.8772 10.3438 36.3293 9.93274C36.7917 9.52172 37.1873 9.10555 37.5161 8.68426ZM39.4891 8.63802C39.8282 9.05931 40.234 9.47034 40.7067 9.87109C41.1897 10.2718 41.7086 10.652 42.2635 11.0117C42.8183 11.361 43.3886 11.6796 43.9744 11.9673C44.5703 12.255 45.1458 12.4914 45.7006 12.6763C45.6184 12.7482 45.526 12.8459 45.4232 12.9692C45.3205 13.0822 45.2228 13.2004 45.1304 13.3237C45.0481 13.447 44.9762 13.5549 44.9146 13.6474C44.3494 13.4213 43.7688 13.149 43.1729 12.8305C42.5871 12.5016 42.0117 12.1369 41.4466 11.7361C40.8917 11.3354 40.3676 10.9089 39.8744 10.4568C39.3812 9.99439 38.9496 9.52685 38.5797 9.05418L39.4891 8.63802ZM34.4643 4.32227V5.92526H42.6488V4.32227H34.4643ZM34.4643 1.79448V3.36664H42.6488V1.79448H34.4643ZM33.2775 0.792608H43.8973V6.92713H33.2775V0.792608ZM54.9333 2.47267C54.8305 3.27416 54.6969 4.11162 54.5325 4.98505C54.3784 5.85847 54.178 6.70621 53.9314 7.52825C53.6231 8.58664 53.2789 9.47034 52.8987 10.1794C52.5288 10.8884 52.128 11.4227 51.6964 11.7823C51.2649 12.142 50.8127 12.3218 50.3401 12.3218C49.8879 12.3218 49.4512 12.1574 49.0299 11.8286C48.6086 11.4998 48.2644 11.0271 47.9972 10.4106C47.7301 9.78374 47.5965 9.04904 47.5965 8.20644C47.5965 7.36384 47.766 6.56749 48.1051 5.81737C48.4545 5.06725 48.9323 4.40448 49.5386 3.82904C50.1551 3.24334 50.8744 2.78093 51.6964 2.44184C52.5185 2.10275 53.3971 1.9332 54.3321 1.9332C55.2364 1.9332 56.0482 2.08219 56.7674 2.38019C57.497 2.67818 58.1187 3.0892 58.6325 3.61326C59.1462 4.12704 59.5419 4.72816 59.8193 5.41662C60.0967 6.09481 60.2355 6.82438 60.2355 7.60532C60.2355 8.68426 60.0043 9.63475 59.5419 10.4568C59.0897 11.2788 58.4321 11.9468 57.5689 12.4605C56.7161 12.9743 55.6782 13.3134 54.4554 13.4778L53.731 12.3372C53.9776 12.3064 54.214 12.2756 54.44 12.2447C54.6661 12.2139 54.8716 12.178 55.0566 12.1369C55.5498 12.0238 56.0276 11.8491 56.49 11.6128C56.9627 11.3662 57.384 11.0579 57.7539 10.688C58.1238 10.3078 58.4167 9.86081 58.6325 9.34703C58.8585 8.82298 58.9716 8.22699 58.9716 7.55908C58.9716 6.93227 58.8688 6.3517 58.6633 5.81737C58.4578 5.27276 58.1547 4.79495 57.7539 4.38392C57.3532 3.9729 56.8651 3.64922 56.2896 3.41288C55.7142 3.17654 55.0566 3.05837 54.3167 3.05837C53.4741 3.05837 52.7086 3.21251 52.0201 3.52078C51.3419 3.82904 50.7614 4.23493 50.2784 4.73843C49.8057 5.23166 49.441 5.77627 49.1841 6.37225C48.9272 6.95796 48.7987 7.53339 48.7987 8.09855C48.7987 8.74591 48.8809 9.28024 49.0454 9.70154C49.22 10.1126 49.4255 10.4157 49.6619 10.6109C49.9085 10.8062 50.15 10.9038 50.3863 10.9038C50.6329 10.9038 50.8847 10.7856 51.1416 10.5493C51.3985 10.3027 51.6605 9.91219 51.9277 9.37786C52.1948 8.83325 52.4568 8.12937 52.7137 7.26623C52.9398 6.52638 53.1299 5.7403 53.284 4.90798C53.4484 4.07566 53.5666 3.25875 53.6385 2.45725L54.9333 2.47267ZM65.1369 12.9075H73.6605V13.7398H65.1369V12.9075ZM64.4279 10.503H74.3849V14.2177H73.1981V11.3508H65.5685V14.2331H64.4279V10.503ZM62.8711 1.14712H75.8954V2.02568H62.8711V1.14712ZM63.9809 3.0892H74.8627V3.95235H63.9809V3.0892ZM62.3933 8.71508H76.3116V9.6553H62.3933V8.71508ZM68.7282 0.0373538H69.9151V3.44371H68.7282V0.0373538ZM65.7997 7.71321L66.8324 7.42036C66.9865 7.62587 67.1252 7.85707 67.2485 8.11396C67.3821 8.37085 67.4746 8.59691 67.526 8.79215L66.4162 9.13124C66.3854 8.93601 66.3083 8.70481 66.185 8.43764C66.0617 8.1602 65.9333 7.91872 65.7997 7.71321ZM71.7647 7.35871L72.9977 7.62073C72.8333 7.90845 72.6638 8.18589 72.4891 8.45305C72.3144 8.70994 72.1551 8.94115 72.0113 9.14666L71.0402 8.88463C71.1635 8.66884 71.2971 8.41709 71.441 8.12937C71.5848 7.83138 71.6927 7.57449 71.7647 7.35871ZM65.7997 5.52451V6.75758H72.9207V5.52451H65.7997ZM64.6899 4.72302H74.0767V7.55908H64.6899V4.72302ZM88.0874 1.84072C88.1696 2.31339 88.2775 2.82204 88.4111 3.36664C88.555 3.91125 88.7451 4.47127 88.9814 5.0467C89.228 5.62213 89.5414 6.19243 89.9216 6.75758C90.3018 7.32274 90.7796 7.86221 91.3551 8.37599L90.5382 9.47034C89.973 8.8538 89.4695 8.18589 89.0276 7.4666C88.5961 6.74731 88.2056 5.95095 87.8562 5.07753C87.5069 4.2041 87.178 3.24333 86.8698 2.19523L88.0874 1.84072ZM78.4541 2.67304C78.6904 2.69359 78.9678 2.69359 79.2864 2.67304C79.6255 2.65249 80.0262 2.62166 80.4886 2.58056C80.951 2.52918 81.4186 2.46753 81.8912 2.3956C82.3639 2.31339 82.8006 2.23119 83.2014 2.14899C83.6124 2.06678 83.9258 1.98458 84.1416 1.90237L84.5115 2.98131C84.4088 3.01213 84.2752 3.05324 84.1108 3.10461C83.9464 3.14572 83.8076 3.1971 83.6946 3.25875C83.4994 3.40261 83.2579 3.62353 82.9702 3.92152C82.6927 4.20924 82.3999 4.56375 82.0916 4.98505C81.7936 5.39607 81.5111 5.85847 81.2439 6.37225C80.987 6.88603 80.7763 7.43577 80.6119 8.02148C80.4475 8.60719 80.3653 9.21345 80.3653 9.84026C80.3653 10.3849 80.4424 10.8473 80.5965 11.2275C80.7609 11.5974 80.9819 11.8954 81.2593 12.1214C81.547 12.3372 81.8707 12.4965 82.2303 12.5993C82.6003 12.702 82.9805 12.7534 83.3709 12.7534C84.604 12.7534 85.5596 12.3424 86.2378 11.5203C86.9263 10.688 87.3424 9.52685 87.4863 8.03689C87.6404 6.53666 87.5171 4.77953 87.1164 2.76552L88.2416 4.84633C88.406 5.73003 88.4933 6.60859 88.5036 7.48201C88.5139 8.35544 88.4317 9.18776 88.257 9.97898C88.0823 10.7599 87.7946 11.4535 87.3938 12.0598C86.9931 12.666 86.4587 13.1439 85.7908 13.4932C85.1229 13.8426 84.306 14.0173 83.3401 14.0173C82.7338 14.0173 82.1738 13.9299 81.66 13.7553C81.1565 13.5908 80.7147 13.3442 80.3345 13.0154C79.9646 12.6866 79.6769 12.2807 79.4714 11.7978C79.2658 11.3045 79.1631 10.7394 79.1631 10.1023C79.1631 9.383 79.2453 8.70994 79.4097 8.08313C79.5844 7.44605 79.8053 6.85006 80.0725 6.29518C80.3499 5.7403 80.6582 5.23166 80.9973 4.76926C81.3364 4.29658 81.6755 3.87015 82.0146 3.48995C81.7577 3.52078 81.4597 3.56188 81.1206 3.61326C80.7918 3.65436 80.4732 3.69546 80.165 3.73656C79.8567 3.77767 79.6049 3.80849 79.4097 3.82904C79.2658 3.84959 79.122 3.87015 78.9781 3.8907C78.8445 3.91125 78.7007 3.93694 78.5465 3.96776L78.4541 2.67304ZM89.4284 0.977569C89.5414 1.16253 89.6596 1.38859 89.7829 1.65576C89.9165 1.91265 90.0449 2.16954 90.1682 2.42643C90.3018 2.68332 90.4097 2.91965 90.4919 3.13544L89.6904 3.44371C89.5979 3.20737 89.49 2.95562 89.3667 2.68845C89.2537 2.42129 89.1355 2.1644 89.0122 1.91778C88.8889 1.6609 88.7708 1.43483 88.6577 1.2396L89.4284 0.977569ZM91.0006 0.376447C91.1752 0.653888 91.3653 1.00326 91.5708 1.42456C91.7764 1.83558 91.951 2.2055 92.0949 2.53432L91.2934 2.82717C91.1495 2.4778 90.9851 2.10275 90.8002 1.702C90.6152 1.30125 90.4303 0.957018 90.2453 0.669302L91.0006 0.376447Z" fill="white"/>
</svg>
