<svg width="42" height="42" viewBox="0 0 42 42" fill="none" xmlns="http://www.w3.org/2000/svg">
<path d="M21 41C32.0457 41 41 32.0457 41 21C41 9.9543 32.0457 1 21 1C9.95431 1 1 9.9543 1 21C1 32.0457 9.95431 41 21 41Z" stroke="white" stroke-width="1.58611"/>
<path d="M18.9728 24.8861V13.4385C18.9728 10.8775 21.0489 8.80144 23.6098 8.80144H25.2043" stroke="white" stroke-width="2.02869"/>
<path d="M24.045 16.7708L24.045 28.3633C24.045 30.9242 21.969 33.0003 19.408 33.0003L17.9589 33.0003" stroke="white" stroke-width="2.31851"/>
<path d="M16.5705 27.2077H19.991V28.1631C19.991 28.639 19.739 29.0794 19.3287 29.3206C19.1225 29.4419 18.8875 29.5058 18.6482 29.5058H16.5705V27.2077Z" fill="white"/>
<path d="M25.2043 14.1624H22.8858V12.905C22.8858 12.599 23.0179 12.3079 23.2481 12.1064C23.4416 11.9372 23.6899 11.8439 23.9469 11.8439H25.2043V14.1624Z" fill="white"/>
</svg>
