<svg width="271" height="108" viewBox="0 0 271 108" fill="none" xmlns="http://www.w3.org/2000/svg">
<path d="M5.94516 79C4.78255 79 4.20125 78.6301 4.20125 77.8902V77.6524C4.20125 77.1768 4.70328 76.4898 5.70735 75.5914C6.71142 74.6402 7.21346 73.5833 7.21346 72.4207V29.2985C7.21346 28.1359 6.71142 27.1054 5.70735 26.207C4.70328 25.2558 4.20125 24.5423 4.20125 24.0667V23.8289C4.20125 23.0891 4.7297 22.7192 5.78662 22.7192H40.4271C41.6425 22.7192 42.3824 23.4062 42.6466 24.7802L44.5491 33.3412C44.8133 34.5566 44.3641 35.1644 43.2015 35.1644H42.8844C42.0389 35.1644 41.0877 34.4774 40.0307 33.1034C38.9738 31.6765 37.8376 30.2761 36.6222 28.9021C35.4067 27.4753 34.1384 26.7619 32.8173 26.7619H19.5794C17.7826 26.7619 16.8843 27.7395 16.8843 29.6948V50.6218H29.3294C30.4392 50.6218 31.5226 49.7498 32.5795 48.0059C33.6364 46.262 34.4291 45.39 34.9575 45.39H35.5124C36.3051 45.39 36.7014 45.8921 36.7014 46.8961V58.1523C36.7014 59.1564 36.3051 59.6584 35.5124 59.6584H34.9575C34.4291 59.6584 33.6364 58.8393 32.5795 57.2011C31.5226 55.51 30.4392 54.6645 29.3294 54.6645H16.8843V72.4207C16.8843 73.5833 17.4127 74.6402 18.4696 75.5914C19.5794 76.4898 20.1343 77.1768 20.1343 77.6524V77.8902C20.1343 78.6301 19.553 79 18.3904 79H5.94516ZM55.7507 34.3717C53.7954 34.3717 52.21 33.8168 50.9946 32.707C49.7791 31.5973 49.1714 30.1704 49.1714 28.4265C49.1714 26.6826 49.7791 25.2558 50.9946 24.146C52.21 23.0362 53.7954 22.4814 55.7507 22.4814C57.6532 22.4814 59.1857 23.0362 60.3483 24.146C61.5638 25.2558 62.1715 26.6826 62.1715 28.4265C62.1715 30.1704 61.5638 31.5973 60.3483 32.707C59.1857 33.8168 57.6532 34.3717 55.7507 34.3717ZM49.8848 79C48.7751 79 48.2202 78.6037 48.2202 77.811V77.4939C48.2202 77.0183 48.6958 76.3313 49.647 75.4329C50.6511 74.5345 51.1531 73.504 51.1531 72.3414V51.573C51.1531 50.3575 50.6511 49.2214 49.647 48.1644C48.6958 47.1075 48.2202 46.4205 48.2202 46.1035V45.8657C48.2202 45.4429 48.6958 44.9673 49.647 44.4388L57.5739 40.4754C58.4723 40.1055 59.1593 40.079 59.6349 40.3961C60.1633 40.6603 60.4276 41.1359 60.4276 41.8229V72.3414C60.4276 73.504 60.956 74.5345 62.013 75.4329C63.1227 76.3313 63.6776 77.0183 63.6776 77.4939V77.811C63.6776 78.6037 63.0963 79 61.9337 79H49.8848ZM102.967 40.951C104.077 40.951 104.922 41.0567 105.504 41.2681C106.138 41.4794 106.481 41.7437 106.534 42.0607C106.64 42.3778 106.587 42.7477 106.376 43.1705C106.111 43.8047 105.662 44.2539 105.028 44.5181C104.447 44.7823 103.575 44.9937 102.412 45.1522C101.302 45.3108 100.563 45.4429 100.193 45.5486C101.672 46.8697 102.861 48.4815 103.76 50.384C104.711 52.2864 105.187 54.1889 105.187 56.0913C105.187 59.2092 104.367 62.0101 102.729 64.4938C101.091 66.9247 98.8451 68.8008 95.9914 70.1219C102.544 71.6544 105.821 74.8252 105.821 79.6342C105.821 83.122 104.024 85.8964 100.43 87.9574C96.8369 90.0712 92.2658 91.1281 86.7169 91.1281C81.0624 91.1281 76.597 89.9655 73.3205 87.6403C70.0441 85.3679 68.4059 82.6992 68.4059 79.6342C68.4059 78.5772 68.7229 77.7053 69.3571 77.0183C70.0441 76.2784 70.9953 75.9085 72.2108 75.9085C73.2677 75.9085 74.1396 76.3313 74.8266 77.1768C75.5665 78.0224 76.2006 79.0264 76.7291 80.189C77.2575 81.4045 77.8653 82.6199 78.5523 83.8354C79.2921 85.0509 80.3754 86.0813 81.8023 86.9269C83.2291 87.7724 84.973 88.1952 87.034 88.1952C89.8877 88.1952 92.1601 87.4289 93.8511 85.8964C95.5951 84.4167 96.467 82.4614 96.467 80.0305C96.467 77.7581 95.8329 75.8821 94.5646 74.4024C93.3491 72.9227 91.658 72.0772 89.4914 71.8658C88.2231 71.9715 87.2454 72.0243 86.5584 72.0243C81.5381 72.0243 77.3104 70.5447 73.8754 67.5853C70.4404 64.5731 68.7229 60.8739 68.7229 56.4877C68.7229 51.6787 70.414 47.7681 73.7961 44.7559C77.1783 41.6908 81.5645 40.1583 86.9548 40.1583C88.3816 40.1583 90.5747 40.2904 93.5341 40.5546C96.4934 40.8189 99.6378 40.951 102.967 40.951ZM77.9181 52.445C77.9181 56.9369 78.9222 60.821 80.9303 64.0975C82.9385 67.3211 85.3165 68.9329 88.0645 68.9329C90.4954 68.9329 92.4243 68.0609 93.8511 66.317C95.278 64.5731 95.9914 62.3271 95.9914 59.5791C95.9914 55.0873 94.9873 51.2295 92.9792 48.0059C91.0239 44.7823 88.5137 43.1705 85.4486 43.1705C83.1234 43.1705 81.2738 44.0425 79.8998 45.7864C78.5787 47.4774 77.9181 49.697 77.9181 52.445ZM121.237 34.3717C119.281 34.3717 117.696 33.8168 116.481 32.707C115.265 31.5973 114.657 30.1704 114.657 28.4265C114.657 26.6826 115.265 25.2558 116.481 24.146C117.696 23.0362 119.281 22.4814 121.237 22.4814C123.139 22.4814 124.672 23.0362 125.834 24.146C127.05 25.2558 127.657 26.6826 127.657 28.4265C127.657 30.1704 127.05 31.5973 125.834 32.707C124.672 33.8168 123.139 34.3717 121.237 34.3717ZM115.291 93.9818C112.279 93.9818 109.848 93.3476 107.999 92.0793C106.149 90.8639 105.224 89.1464 105.224 86.9269C105.224 85.7643 105.594 84.813 106.334 84.0732C107.074 83.3334 108.052 82.9634 109.267 82.9634C110.535 82.9634 111.513 83.3598 112.2 84.1525C112.94 84.9452 113.389 85.8171 113.548 86.7683C113.759 87.7724 114.129 88.6708 114.657 89.4635C115.239 90.2562 116.031 90.6525 117.035 90.6525C118.039 90.6525 118.859 90.2826 119.493 89.5427C120.127 88.8029 120.444 87.8517 120.444 86.6891C120.444 85.1037 119.889 83.3069 118.779 81.2988C117.722 79.2907 117.194 77.626 117.194 76.3049V51.573C117.194 50.3047 116.692 49.1685 115.688 48.1644C114.737 47.1604 114.261 46.4734 114.261 46.1035V45.8657C114.261 45.39 114.71 44.9144 115.609 44.4388L123.853 40.4754C124.698 40.1055 125.385 40.079 125.913 40.3961C126.442 40.6603 126.706 41.1359 126.706 41.8229V79C126.706 82.5935 126.072 85.685 124.804 88.2744C122.901 92.0793 119.731 93.9818 115.291 93.9818ZM155.07 79.7927C148.57 79.7927 143.364 77.811 139.454 73.8475C135.543 69.8841 133.588 65.128 133.588 59.5791C133.588 54.0303 135.49 49.4063 139.295 45.7071C143.1 42.0079 147.75 40.1583 153.246 40.1583C159.376 40.1583 164.397 42.1136 168.307 46.0242C172.218 49.8819 174.173 54.6116 174.173 60.2133C174.173 65.7621 172.403 70.4125 168.862 74.1646C165.322 77.9167 160.724 79.7927 155.07 79.7927ZM156.259 76.7805C158.795 76.7805 160.856 75.6179 162.442 73.2926C164.027 70.9146 164.82 67.6381 164.82 63.4633C164.82 57.8617 163.604 53.0791 161.173 49.1157C158.795 45.1522 155.809 43.1705 152.216 43.1705C149.362 43.1705 147.09 44.3331 145.399 46.6583C143.761 48.9307 142.941 52.2072 142.941 56.4877C142.941 61.6666 144.183 66.3434 146.667 70.5182C149.204 74.6931 152.401 76.7805 156.259 76.7805ZM216.321 40.951C217.22 40.951 217.669 41.3209 217.669 42.0607V42.3778C217.669 42.9591 217.167 43.7518 216.163 44.7559C215.159 45.7071 214.393 46.764 213.864 47.9266L198.882 80.7439C197.931 82.9106 197.112 84.6281 196.425 85.8964C195.791 87.1647 194.84 88.6972 193.571 90.494C192.356 92.2907 190.955 93.6383 189.37 94.5367C187.785 95.4351 186.067 95.8843 184.218 95.8843C181.1 95.8843 178.537 95.0651 176.528 93.4269C174.52 91.8415 173.516 90.0712 173.516 88.1159C173.516 86.9533 173.86 86.0021 174.547 85.2622C175.234 84.5224 176.185 84.1525 177.4 84.1525C178.563 84.1525 179.514 84.5752 180.254 85.4208C180.994 86.3192 181.496 87.2968 181.76 88.3537C182.077 89.4635 182.553 90.4411 183.187 91.2867C183.821 92.185 184.64 92.6342 185.644 92.6342C188.392 92.6342 191.352 88.6972 194.522 80.8232L179.065 47.9266C178.484 46.764 177.665 45.7071 176.608 44.7559C175.551 43.7518 175.022 42.9591 175.022 42.3778V42.0607C175.022 41.3209 175.498 40.951 176.449 40.951H188.974C189.872 40.951 190.321 41.3473 190.321 42.14V42.3778C190.321 42.8006 190.083 43.2762 189.608 43.8047C189.132 44.3331 188.789 44.8352 188.577 45.3108C188.419 45.7864 188.577 46.6848 189.053 48.0059L199.516 72.0243L209.346 48.8779C209.821 47.2925 209.821 46.2091 209.346 45.6278C208.87 44.9937 208.21 44.4124 207.364 43.8839C206.518 43.3026 206.096 42.8006 206.096 42.3778V42.14C206.096 41.3473 206.571 40.951 207.523 40.951H216.321Z" fill="white"/>
<path d="M246.19 63.1496V33.8332C246.19 27.2748 251.506 21.9582 258.065 21.9582H262.148" stroke="white" stroke-width="5.19531"/>
<path d="M259.179 42.3669L259.179 72.0544C259.179 78.6128 253.863 83.9294 247.304 83.9294L243.593 83.9294" stroke="white" stroke-width="5.9375"/>
<path d="M240.038 69.0952H248.797V71.5419C248.797 72.7607 248.152 73.8884 247.101 74.5061C246.573 74.8167 245.971 74.9804 245.358 74.9804H240.038V69.0952Z" fill="white"/>
<path d="M262.148 35.6873H256.21V32.4672C256.21 31.6836 256.549 30.9381 257.138 30.4221C257.634 29.9887 258.27 29.7498 258.928 29.7498H262.148V35.6873Z" fill="white"/>
</svg>
